<?xml version="1.0" encoding="utf-8"?><svg viewBox="0 0 150 150" xmlns="http://www.w3.org/2000/svg" xmlns:xlink="http://www.w3.org/1999/xlink"><style>:root>svg{display:none}:root>svg:target{display:block}</style><svg viewBox="0 0 150 150" id="call" xmlns="http://www.w3.org/2000/svg"><path d="M78.515 17.898h.293a53.188 53.188 0 0153.294 53.559 5.86 5.86 0 005.832 5.887h.028a5.86 5.86 0 005.859-5.832A64.906 64.906 0 0078.81 6.18h-.322a5.86 5.86 0 00.027 11.719zM149.985 120.865a22.188 22.188 0 00-6.805-15.246c-8.183-7.891-15.039-12.446-21.576-14.335-9.009-2.604-17.352-.236-24.797 7.036l-.034.033-7.93 7.87a117.975 117.975 0 01-24.97-19.327l-.772-.77a118.714 118.714 0 01-19.318-24.977l7.863-7.922.033-.034c7.272-7.445 9.64-15.789 7.036-24.797-1.889-6.537-6.443-13.393-14.334-21.576a22.296 22.296 0 00-30.944-1.115l-.168.15q-.118.106-.229.217C4.44 14.673-.07 26.715 0 40.895c.12 24.088 13.36 51.635 35.415 73.69l.055.054a142.99 142.99 0 0013.993 12.178 5.86 5.86 0 007.13-9.3 131.021 131.021 0 01-12.892-11.219l-.055-.054C23.759 86.333 11.825 61.886 11.72 40.836c-.054-10.92 3.23-20.036 9.502-26.371l.044-.04a10.54 10.54 0 0114.68.529c15.17 15.732 14.072 23.159 7.369 30.033L32.452 55.93a5.86 5.86 0 00-1.193 6.511c.275.62 6.946 15.36 23.558 31.973l.772.77c16.61 16.61 31.35 23.28 31.97 23.557a5.859 5.859 0 006.511-1.194l10.942-10.86c6.874-6.704 14.302-7.804 30.034 7.367a10.54 10.54 0 01.53 14.68l-.04.045c-6.285 6.22-15.303 9.502-26.105 9.502h-.267c-8.634-.044-18.632-2.41-28.913-6.845a5.86 5.86 0 00-4.642 10.76c11.884 5.126 23.154 7.751 33.496 7.803h.329c14.037 0 25.96-4.505 34.494-13.04.074-.074.146-.15.216-.228l.152-.169a22.19 22.19 0 005.69-15.697z"/><path d="M108.24 41.762a32.203 32.203 0 00-15.217-8.755A5.86 5.86 0 1089.9 44.302a20.494 20.494 0 0110.053 5.747 20.94 20.94 0 015.69 9.868l.085.287a5.86 5.86 0 1011.236-3.326l-.079-.269a32.246 32.246 0 00-8.646-14.847z"/></svg><svg viewBox="0 0 150 143" id="comment" xmlns="http://www.w3.org/2000/svg"><path d="M75 0C33.645 0 0 30.28 0 67.5a62.399 62.399 0 0011.92 36.51c-1.477 16.342-5.437 28.475-11.187 34.222A2.5 2.5 0 002.5 142.5a2.345 2.345 0 00.348-.025c1.012-.143 24.532-3.528 41.545-13.348A81.377 81.377 0 0075 135c41.355 0 75-30.28 75-67.5S116.355 0 75 0zM40 77.5a10 10 0 1110-10 10.01 10.01 0 01-10 10zm35 0a10 10 0 1110-10 10.01 10.01 0 01-10 10zm35 0a10 10 0 1110-10 10.01 10.01 0 01-10 10z"/></svg><svg viewBox="0 0 150 150" id="home" xmlns="http://www.w3.org/2000/svg"><path d="M145.957 65.243l-.011-.012L84.757 4.045a13.807 13.807 0 00-19.529 0L4.072 65.2l-.062.063A13.803 13.803 0 0013.2 88.79c.142.014.283.02.426.02h2.438v45.029A16.18 16.18 0 0032.226 150h23.938a4.395 4.395 0 004.395-4.395v-35.302a7.382 7.382 0 017.374-7.374h14.12a7.381 7.381 0 017.374 7.374v35.302A4.395 4.395 0 0093.82 150h23.939a16.18 16.18 0 0016.162-16.161V88.81h2.262a13.811 13.811 0 009.773-23.568zm-6.223 13.307a4.99 4.99 0 01-3.55 1.472h-6.656a4.394 4.394 0 00-4.395 4.394v49.423a7.381 7.381 0 01-7.373 7.372H98.216v-30.908A16.18 16.18 0 0082.053 94.14h-14.12a16.182 16.182 0 00-16.163 16.163v30.908H32.226a7.382 7.382 0 01-7.374-7.372V84.416a4.394 4.394 0 00-4.394-4.394h-6.542a4.088 4.088 0 00-.206-.01 5.014 5.014 0 01-3.457-8.563l.002-.002.004-.004L71.444 10.26a5.017 5.017 0 017.098 0l61.172 61.17.029.028a5.03 5.03 0 01-.01 7.092z"/></svg><svg viewBox="0 0 150 132.422" id="like" xmlns="http://www.w3.org/2000/svg"><path d="M110.156 0a35.514 35.514 0 00-22.18 7.666A50.524 50.524 0 0075 23.272 50.52 50.52 0 0062.024 7.666 35.514 35.514 0 0039.844 0C17.129 0 0 18.58 0 43.217c0 26.617 21.37 44.829 53.721 72.398 5.494 4.682 11.721 9.989 18.193 15.648a4.689 4.689 0 006.172 0c6.472-5.66 12.7-10.967 18.196-15.651C128.63 88.046 150 69.834 150 43.217 150 18.579 132.87 0 110.156 0z"/></svg><svg viewBox="0 0 111 150" id="play" xmlns="http://www.w3.org/2000/svg"><path d="M14.453 150A14.342 14.342 0 01.13 135.678V14.32A14.309 14.309 0 0122.901 2.782l82.121 60.222a14.31 14.31 0 01.084 23.016l-82.123 61.136a14.255 14.255 0 01-8.53 2.844zm.027-139.38a3.848 3.848 0 00-1.706.415 3.593 3.593 0 00-2.018 3.285v121.358a3.683 3.683 0 005.882 2.955l82.123-61.135a3.684 3.684 0 00-.022-5.925L16.617 11.35a3.553 3.553 0 00-2.137-.73z"/></svg><svg viewBox="0 0 150 150" id="search" xmlns="http://www.w3.org/2000/svg"><path d="M148.2 139.4l-42.6-42.6c20.6-25.5 16.7-62.9-8.8-83.5s-63-16.7-83.6 8.8S-3.5 85 22 105.6c21.8 17.6 52.9 17.6 74.7 0l42.6 42.6c2.4 2.4 6.4 2.4 8.8 0 2.5-2.4 2.5-6.3.1-8.8zm-88.7-33c-25.8 0-46.8-21-46.8-46.8s21-46.8 46.8-46.8 46.8 21 46.8 46.8c0 25.8-21 46.8-46.8 46.8z"/></svg><svg viewBox="0 0 150 150" id="sign-up" xmlns="http://www.w3.org/2000/svg"><path d="M133.929 16.071h-16.072V5.357a5.357 5.357 0 10-10.714 0v10.714H42.857V5.357a5.357 5.357 0 10-10.714 0v10.714H16.07A16.071 16.071 0 000 32.143v101.786A16.071 16.071 0 0016.071 150H133.93A16.071 16.071 0 00150 133.929V32.143a16.071 16.071 0 00-16.071-16.072zm5.357 117.858a5.357 5.357 0 01-5.358 5.357H16.071a5.357 5.357 0 01-5.357-5.357V64.286h128.572zm0-80.358H10.714V32.143a5.357 5.357 0 015.357-5.357h16.072V37.5a5.357 5.357 0 1010.714 0V26.786h64.286V37.5a5.357 5.357 0 1010.714 0V26.786h16.072a5.357 5.357 0 015.357 5.357V53.57z"/><path d="M110.799 76.57a5.357 5.357 0 00-7.443 0l-39.07 39.07-17.642-17.642a5.357 5.357 0 00-7.574 7.575l21.428 21.429a5.357 5.357 0 007.575 0l42.857-42.857a5.357 5.357 0 00-.131-7.575z"/></svg></svg>