<?xml version="1.0" encoding="utf-8"?><svg viewBox="0 0 512 512.01" xmlns="http://www.w3.org/2000/svg" xmlns:xlink="http://www.w3.org/1999/xlink"><style>:root>svg{display:none}:root>svg:target{display:block}</style><svg viewBox="0 0 240.823 240.823" id="arrow" xmlns="http://www.w3.org/2000/svg"><path d="M57.633 129.007L165.93 237.268c4.752 4.74 12.451 4.74 17.215 0 4.752-4.74 4.752-12.439 0-17.179l-99.707-99.671 99.695-99.671c4.752-4.74 4.752-12.439 0-17.191-4.752-4.74-12.463-4.74-17.215 0L57.621 111.816c-4.679 4.691-4.679 12.511.012 17.191z"/></svg><svg viewBox="0 0 64 64" id="calendar" xmlns="http://www.w3.org/2000/svg"><path d="M57 8h-5V6a4 4 0 00-8 0v2h-8V6a4 4 0 00-8 0v2h-8V6a4 4 0 00-8 0v2H7a5 5 0 00-5 5v40a5 5 0 005 5h28a1 1 0 000-2H7a3.009 3.009 0 01-3-3V22h56v17a1 1 0 002 0V13a5 5 0 00-5-5zM46 6a2 2 0 014 0v6a2 2 0 01-4 0zM30 6a2 2 0 014 0v6a2 2 0 01-4 0zM14 6a2 2 0 014 0v6a2 2 0 01-4 0zm46 14H4v-7a3.009 3.009 0 013-3h5v2a4 4 0 008 0v-2h8v2a4 4 0 008 0v-2h8v2a4 4 0 008 0v-2h5a3.009 3.009 0 013 3z"/><path d="M30 29a2 2 0 00-2-2h-4a2 2 0 00-2 2v3a2 2 0 002 2h4a2 2 0 002-2zm-6 3v-3h4v3zM18 29a2 2 0 00-2-2h-4a2 2 0 00-2 2v3a2 2 0 002 2h4a2 2 0 002-2zm-6 3v-3h4v3zM52 34a2 2 0 002-2v-3a2 2 0 00-2-2h-4a2 2 0 00-2 2v3a2 2 0 002 2zm-4-5h4v3h-4zM30 38a2 2 0 00-2-2h-4a2 2 0 00-2 2v3a2 2 0 002 2h4a2 2 0 002-2zm-6 3v-3h4v3zM18 38a2 2 0 00-2-2h-4a2 2 0 00-2 2v3a2 2 0 002 2h4a2 2 0 002-2zm-6 3v-3h4v3zM28 45h-4a2 2 0 00-2 2v3a2 2 0 002 2h4a2 2 0 002-2v-3a2 2 0 00-2-2zm-4 5v-3h4v3zM36 34h4a2 2 0 002-2v-3a2 2 0 00-2-2h-4a2 2 0 00-2 2v3a2 2 0 002 2zm0-5h4v3h-4zM34 41a2 2 0 002 2 1 1 0 000-2v-3h4a1 1 0 000-2h-4a2 2 0 00-2 2zM16 45h-4a2 2 0 00-2 2v3a2 2 0 002 2h4a2 2 0 002-2v-3a2 2 0 00-2-2zm-4 5v-3h4v3z"/><path d="M49 36a13 13 0 1013 13 13.015 13.015 0 00-13-13zm0 24a11 11 0 1111-11 11.013 11.013 0 01-11 11z"/><path d="M54.778 44.808L47 52.586l-3.535-3.536a1 1 0 00-1.414 1.414l4.242 4.243a1 1 0 001.414 0l8.485-8.485a1 1 0 00-1.414-1.414z"/></svg><svg viewBox="0 0 512 512" id="call" xmlns="http://www.w3.org/2000/svg"><path d="M436.992 74.953c-99.989-99.959-262.08-99.935-362.039.055s-99.935 262.08.055 362.039 262.08 99.935 362.039-.055a256 256 0 00-.055-362.039zm-49.289 281.652l-.034.034v-.085l-12.971 12.885a68.267 68.267 0 01-64.427 18.432 226.834 226.834 0 01-65.877-29.525 304.371 304.371 0 01-51.968-41.899 306.71 306.71 0 01-38.827-47.104 238.907 238.907 0 01-29.184-59.051 68.265 68.265 0 0117.067-69.717l15.189-15.189c4.223-4.242 11.085-4.257 15.326-.034l.034.034 47.957 47.957c4.242 4.223 4.257 11.085.034 15.326l-.034.034-28.16 28.16c-8.08 7.992-9.096 20.692-2.389 29.867a329.334 329.334 0 0033.707 39.339 327.314 327.314 0 0044.373 37.291c9.167 6.394 21.595 5.316 29.525-2.56l27.221-27.648c4.223-4.242 11.085-4.257 15.326-.034l.034.034 48.043 48.128c4.243 4.222 4.258 11.083.035 15.325z"/></svg><svg viewBox="0 0 489.6 489.6" id="chat" xmlns="http://www.w3.org/2000/svg"><path d="M394.8 261.5V81.7c0-24.9-20.3-45.2-45.2-45.2H45.2C20.3 36.5 0 56.8 0 81.7v179.8c0 24.9 20.3 45.2 45.2 45.2h12.9v54.2c0 10 8.1 18.1 18.2 18.1 5.2 0 10.2-2.3 13.7-6.3l57.1-66.1h202.6c24.8.1 45.1-20.2 45.1-45.1zm-253.4 20.7c-3.6 0-6.9 1.5-9.3 4.2l-49.6 57.3v-49.3c0-6.8-5.5-12.3-12.3-12.3h-25c-11.4 0-20.7-9.3-20.7-20.7V81.7c0-11.4 9.3-20.7 20.7-20.7h304.4c11.4 0 20.7 9.3 20.7 20.7v179.8c0 11.4-9.3 20.7-20.7 20.7H141.4z"/><path d="M399.7 446.8c3.5 4.1 8.5 6.3 13.6 6.3 2.1 0 4.3-.4 6.4-1.2 7.2-2.7 11.8-9.3 11.8-17v-54.2h12.9c24.9 0 45.2-20.3 45.2-45.2V155.7c0-24.9-20.3-45.2-45.2-45.2-6.8 0-12.3 5.5-12.3 12.2 0 6.8 5.5 12.3 12.3 12.3 11.4 0 20.7 9.3 20.7 20.7v179.8c0 11.4-9.3 20.7-20.7 20.7h-25.1c-6.8 0-12.3 5.5-12.3 12.3v49.3l-49.6-57.3c-2.3-2.7-5.7-4.2-9.3-4.2h-184c-6.8 0-12.3 5.5-12.3 12.3s5.5 12.3 12.3 12.3h178.4l57.2 65.9z"/><circle cx="197.4" cy="175.9" r="14.6"/><circle cx="246.3" cy="175.9" r="14.6"/><circle cx="148.5" cy="175.9" r="14.6"/></svg><svg viewBox="0 0 512.001 512.001" id="close" xmlns="http://www.w3.org/2000/svg"><path d="M284.286 256.002L506.143 34.144c7.811-7.811 7.811-20.475 0-28.285-7.811-7.81-20.475-7.811-28.285 0L256 227.717 34.143 5.859c-7.811-7.811-20.475-7.811-28.285 0-7.81 7.811-7.811 20.475 0 28.285l221.857 221.857L5.858 477.859c-7.811 7.811-7.811 20.475 0 28.285a19.938 19.938 0 0014.143 5.857 19.94 19.94 0 0014.143-5.857L256 284.287l221.857 221.857c3.905 3.905 9.024 5.857 14.143 5.857s10.237-1.952 14.143-5.857c7.811-7.811 7.811-20.475 0-28.285L284.286 256.002z"/></svg><svg viewBox="0 0 150 143" id="comment" xmlns="http://www.w3.org/2000/svg"><path d="M75 0C33.645 0 0 30.28 0 67.5a62.399 62.399 0 0011.92 36.51c-1.477 16.342-5.437 28.475-11.187 34.222A2.5 2.5 0 002.5 142.5a2.345 2.345 0 00.348-.025c1.012-.143 24.532-3.528 41.545-13.348A81.377 81.377 0 0075 135c41.355 0 75-30.28 75-67.5S116.355 0 75 0zM40 77.5a10 10 0 1110-10 10.01 10.01 0 01-10 10zm35 0a10 10 0 1110-10 10.01 10.01 0 01-10 10zm35 0a10 10 0 1110-10 10.01 10.01 0 01-10 10z"/></svg><svg viewBox="0 -45 512 511" id="comment-2" xmlns="http://www.w3.org/2000/svg"><path d="M407 .5H105C47.102.5 0 47.602 0 105.5v162.172c0 46.2 30.332 86.437 74.285 99.316l50.711 50.715a15.012 15.012 0 0010.61 4.395c3.976 0 7.792-1.582 10.605-4.395l46.52-46.523H407c57.898 0 105-47.102 105-105V105.5c0-57.898-47.102-105-105-105zm75 265.68c0 41.355-33.645 75-75 75H186.52a15.003 15.003 0 00-10.606 4.394l-40.309 40.309-42.93-42.93a14.983 14.983 0 00-6.984-3.95C52.902 330.844 30 301.513 30 267.673V105.5c0-41.355 33.645-75 75-75h302c41.355 0 75 33.645 75 75zm0 0"/><path d="M351.242 144.328H160.758c-8.285 0-15 6.719-15 15 0 8.285 6.715 15 15 15h190.484c8.285 0 15-6.715 15-15 0-8.281-6.715-15-15-15zm0 0M351.242 197.352H160.758c-8.285 0-15 6.714-15 15 0 8.285 6.715 15 15 15h190.484c8.285 0 15-6.715 15-15 0-8.286-6.715-15-15-15zm0 0"/></svg><svg viewBox="0 0 31 40" id="filter" xmlns="http://www.w3.org/2000/svg"><path d="M29.63 8.988L20.884.363a1.28 1.28 0 00-1.786 0l-8.75 8.625a1.24 1.24 0 000 1.768 1.27 1.27 0 001.786 0l6.594-6.5v19.49c0 .691.565 1.25 1.262 1.25.698 0 1.263-.56 1.263-1.25V4.257l6.594 6.5a1.27 1.27 0 001.785 0 1.24 1.24 0 000-1.768zM17.868 29.245l-6.594 6.5V16.255c0-.69-.565-1.25-1.262-1.25-.698 0-1.263.56-1.263 1.25v19.491l-6.594-6.5a1.27 1.27 0 00-1.785 0 1.24 1.24 0 000 1.768l8.75 8.624a1.28 1.28 0 001.785 0l8.75-8.625a1.24 1.24 0 000-1.768 1.273 1.273 0 00-1.787.001z"/></svg><svg viewBox="0 0 512 512" id="find-worker" xmlns="http://www.w3.org/2000/svg"><path d="M511.993 111.507C511.993 50.021 461.973 0 400.489 0c-56.381 0-103.116 42.066-110.485 96.461H42.292c-23.316 0-42.285 18.97-42.285 42.286v89.205c0 5.522 4.477 10 10 10s10-4.478 10-10v-89.205c0-12.289 9.997-22.286 22.285-22.286h246.809c2.602 59.195 51.565 106.553 111.388 106.553 13.418 0 26.29-2.383 38.215-6.747v179.692c0 12.289-9.997 22.286-22.285 22.286H297.767a10 10 0 00-7.331 3.199l-61.094 65.854-61.094-65.854a9.999 9.999 0 00-7.331-3.199H42.292c-12.288 0-22.285-9.997-22.285-22.286v-78.206c0-5.522-4.477-10-10-10s-10 4.478-10 10v78.206c0 23.316 18.969 42.286 42.285 42.286h114.261l65.458 70.557a9.999 9.999 0 0014.662 0l65.458-70.557H416.42c23.316 0 42.285-18.97 42.285-42.286V206.573c31.941-19.633 53.288-54.902 53.288-95.066zm-111.504 91.507c-50.455 0-91.504-41.05-91.504-91.507S350.034 20 400.489 20s91.504 41.05 91.504 91.507-41.049 91.507-91.504 91.507z"/><path d="M442.837 101.507h-32.348V69.13c0-5.522-4.478-10-10-10s-10 4.478-10 10v32.377h-32.376c-5.522 0-10 4.478-10 10s4.478 10 10 10h32.376v32.349c0 5.522 4.478 10 10 10s10-4.478 10-10v-32.349h32.348c5.522 0 10-4.478 10-10s-4.478-10-10-10zM128.382 332.804v41.102c0 5.522 4.477 10 10 10h181.919c5.522 0 10-4.478 10-10v-41.102c0-29.773-18.612-56.217-45.315-67.126a66.466 66.466 0 0011.216-37.017c0-36.883-29.994-66.89-66.861-66.89s-66.86 30.007-66.86 66.89a66.473 66.473 0 0011.217 37.019c-26.703 10.911-45.316 37.354-45.316 67.124zm100.959-151.033c25.839 0 46.861 21.034 46.861 46.89 0 25.84-21.021 46.862-46.861 46.862-25.839 0-46.86-21.022-46.86-46.862 0-25.856 21.021-46.89 46.86-46.89zm-40.549 100.002c11.257 8.615 25.312 13.75 40.55 13.75s29.293-5.134 40.55-13.75c23.311 5.528 40.41 26.75 40.41 51.031v31.102h-161.92v-31.102c0-24.278 17.099-45.5 40.41-51.031zM10.007 282.852c5.523 0 10-4.478 10-10v-.057c0-5.522-4.477-9.972-10-9.972s-10 4.506-10 10.028 4.477 10.001 10 10.001z"/></svg><svg viewBox="0 0 26 23" id="go-back" xmlns="http://www.w3.org/2000/svg"><path d="M11.497 19.859l-6.62-7.075h19.85c.703 0 1.273-.607 1.273-1.355s-.57-1.355-1.273-1.355H4.877L11.498 3a1.415 1.415 0 000-1.915 1.218 1.218 0 00-1.8 0L.915 10.47c-.49.522-.495 1.395 0 1.917l8.783 9.388c.498.53 1.304.528 1.8 0a1.42 1.42 0 000-1.917z"/></svg><svg viewBox="0 -28 512.001 512" id="heart" xmlns="http://www.w3.org/2000/svg"><path d="M256 455.516c-7.29 0-14.316-2.641-19.793-7.438-20.684-18.086-40.625-35.082-58.219-50.074l-.09-.078c-51.582-43.957-96.125-81.918-127.117-119.313C16.137 236.81 0 197.172 0 153.871c0-42.07 14.426-80.883 40.617-109.293C67.121 15.832 103.488 0 143.031 0c29.555 0 56.621 9.344 80.446 27.77C235.5 37.07 246.398 48.453 256 61.73c9.605-13.277 20.5-24.66 32.527-33.96C312.352 9.344 339.418 0 368.973 0c39.539 0 75.91 15.832 102.414 44.578C497.578 72.988 512 111.801 512 153.871c0 43.3-16.133 82.938-50.777 124.738-30.993 37.399-75.532 75.356-127.106 119.309-17.625 15.016-37.597 32.039-58.328 50.168a30.046 30.046 0 01-19.789 7.43zM143.031 29.992c-31.066 0-59.605 12.399-80.367 34.914-21.07 22.856-32.676 54.45-32.676 88.965 0 36.418 13.535 68.988 43.883 105.606 29.332 35.394 72.961 72.574 123.477 115.625l.093.078c17.66 15.05 37.68 32.113 58.516 50.332 20.961-18.254 41.012-35.344 58.707-50.418 50.512-43.051 94.137-80.223 123.469-115.617 30.344-36.618 43.879-69.188 43.879-105.606 0-34.516-11.606-66.11-32.676-88.965-20.758-22.515-49.3-34.914-80.363-34.914-22.758 0-43.653 7.235-62.102 21.5-16.441 12.719-27.894 28.797-34.61 40.047-3.452 5.785-9.53 9.238-16.261 9.238s-12.809-3.453-16.262-9.238c-6.71-11.25-18.164-27.328-34.61-40.047-18.448-14.265-39.343-21.5-62.097-21.5zm0 0"/></svg><svg viewBox="0 0 150 150" id="home" xmlns="http://www.w3.org/2000/svg"><path d="M145.957 65.243l-.011-.012L84.757 4.045a13.807 13.807 0 00-19.529 0L4.072 65.2l-.062.063A13.803 13.803 0 0013.2 88.79c.142.014.283.02.426.02h2.438v45.029A16.18 16.18 0 0032.226 150h23.938a4.395 4.395 0 004.395-4.395v-35.302a7.382 7.382 0 017.374-7.374h14.12a7.381 7.381 0 017.374 7.374v35.302A4.395 4.395 0 0093.82 150h23.939a16.18 16.18 0 0016.162-16.161V88.81h2.262a13.811 13.811 0 009.773-23.568zm-6.223 13.307a4.99 4.99 0 01-3.55 1.472h-6.656a4.394 4.394 0 00-4.395 4.394v49.423a7.381 7.381 0 01-7.373 7.372H98.216v-30.908A16.18 16.18 0 0082.053 94.14h-14.12a16.182 16.182 0 00-16.163 16.163v30.908H32.226a7.382 7.382 0 01-7.374-7.372V84.416a4.394 4.394 0 00-4.394-4.394h-6.542a4.088 4.088 0 00-.206-.01 5.014 5.014 0 01-3.457-8.563l.002-.002.004-.004L71.444 10.26a5.017 5.017 0 017.098 0l61.172 61.17.029.028a5.03 5.03 0 01-.01 7.092z"/></svg><svg viewBox="0 0 384.024 384" id="info" xmlns="http://www.w3.org/2000/svg"><path d="M242.5 299.598a26.411 26.411 0 01-18.48-24.985V187.57a35.312 35.312 0 00-16.168-29.597 36.413 36.413 0 00-31.317-4.137l-34.992 11.383a8.002 8.002 0 00-5.504 7.601 7.994 7.994 0 005.504 7.598 26.398 26.398 0 0118.477 24.992v87.043a35.321 35.321 0 0016.167 29.598 36.355 36.355 0 0031.32 4.137l34.993-11.415a8.002 8.002 0 000-15.203zm-39.95 11.414a20.531 20.531 0 01-17.6-2.328 19.417 19.417 0 01-8.93-16.23V205.41a41.92 41.92 0 00-13.032-30.36l18.504-6.038a20.463 20.463 0 0117.602 2.328 19.413 19.413 0 018.926 16.23v87.043a41.939 41.939 0 0013.035 30.36zm0 0M192.02 136.012c22.093 0 40-17.91 40-40s-17.907-40-40-40c-22.09 0-40 17.91-40 40 .027 22.082 17.921 39.972 40 40zm0-64c13.257 0 24 10.746 24 24s-10.743 24-24 24c-13.254 0-24-10.746-24-24s10.746-24 24-24zm0 0"/><path d="M192.02.012C113.934.004 43.617 47.289 14.172 119.613-15.273 191.941 2.02 274.895 57.91 329.43s139.242 69.789 210.824 38.582H376.02a7.998 7.998 0 005.656-13.657l-40.95-40.953c46.91-57.422 56.551-136.734 24.766-203.726C333.703 42.684 266.172-.008 192.02.012zM324.2 319.5l32.51 32.512h-89.663a8.104 8.104 0 00-3.266.695c-82.207 36.785-178.918 5.656-224.238-72.168-45.32-77.824-24.66-177.3 47.898-230.644C160.004-3.45 261.113 6.508 321.875 72.98c60.762 66.477 61.617 168.07 1.984 235.56a8.003 8.003 0 00.34 10.96zm0 0"/></svg><svg viewBox="0 0 512 512" id="info-sell" xmlns="http://www.w3.org/2000/svg"><path d="M59.91 90.363h215.239c4.143 0 7.5-3.358 7.5-7.5s-3.357-7.5-7.5-7.5H59.91a7.5 7.5 0 000 15zM59.91 144.162h215.239c4.143 0 7.5-3.358 7.5-7.5s-3.357-7.5-7.5-7.5H59.91a7.5 7.5 0 000 15z"/><path d="M467.33 157.881H352.27v-111c0-24.631-20.039-44.67-44.67-44.67H44.67C20.039 2.211 0 22.25 0 46.881v160.1c0 4.142 3.357 7.5 7.5 7.5s7.5-3.358 7.5-7.5v-160.1c0-16.36 13.31-29.67 29.67-29.67H307.6c16.36 0 29.67 13.31 29.67 29.67v111H204.4c-17.606 0-32.861 10.242-40.133 25.077H59.909c-4.143 0-7.5 3.358-7.5 7.5s3.357 7.5 7.5 7.5h100.056a44.965 44.965 0 00-.235 4.593v98.409l-54.877 36.471c-3.145 2.086-7.004 2.268-10.324.486-3.318-1.78-5.299-5.091-5.299-8.856v-38.9a7.5 7.5 0 00-7.5-7.5H44.67c-16.36 0-29.67-13.305-29.67-29.66v-16.02c0-4.142-3.357-7.5-7.5-7.5s-7.5 3.358-7.5 7.5v16.02c0 24.625 20.039 44.66 44.67 44.66h29.56v31.4a25.015 25.015 0 0013.207 22.074 25.034 25.034 0 0025.714-1.207l46.579-30.956v89.7c0 24.631 20.039 44.67 44.67 44.67h115.804l26.004 17.286a7.5 7.5 0 008.304-12.492l-27.891-18.54a7.499 7.499 0 00-4.152-1.254H204.4c-16.36 0-29.67-13.31-29.67-29.67v-206.12c0-16.36 13.31-29.67 29.67-29.67h262.93c16.36 0 29.67 13.31 29.67 29.67v206.12c0 16.36-13.31 29.67-29.67 29.67h-37.06a7.5 7.5 0 00-7.5 7.5v38.89c0 3.765-1.982 7.076-5.303 8.857-3.322 1.781-7.178 1.6-10.316-.483l-27.659-18.38a7.5 7.5 0 10-8.301 12.493l27.661 18.381a25.03 25.03 0 0013.859 4.189c4.059 0 8.13-.989 11.847-2.982a25.016 25.016 0 0013.213-22.075v-31.39h29.561c24.631 0 44.67-20.039 44.67-44.67v-206.12c-.002-24.632-20.041-44.671-44.672-44.671z"/><path d="M299.586 356.797c-12.219 0-22.159 9.941-22.159 22.16s9.94 22.16 22.159 22.16h72.562c12.219 0 22.16-9.941 22.16-22.16s-9.941-22.16-22.16-22.16h-1.506v-51.818c0-11.874-9.66-21.534-21.533-21.534h-49.522c-12.219 0-22.159 9.941-22.159 22.16s9.94 22.16 22.159 22.16h5.186v29.032zm12.685-44.032h-12.686c-3.947 0-7.159-3.212-7.159-7.16s3.212-7.16 7.159-7.16h49.522a6.54 6.54 0 016.533 6.534v59.318a7.5 7.5 0 007.5 7.5h9.006c3.948 0 7.16 3.212 7.16 7.16s-3.212 7.16-7.16 7.16h-72.562c-3.947 0-7.159-3.212-7.159-7.16s3.212-7.16 7.159-7.16h12.686a7.5 7.5 0 007.5-7.5v-44.032a7.498 7.498 0 00-7.499-7.5zM370.642 243.032c0-18.161-14.774-32.935-32.935-32.935s-32.936 14.775-32.936 32.935 14.774 32.936 32.936 32.936c18.16 0 32.935-14.775 32.935-32.936zm-50.871 0c0-9.89 8.046-17.935 17.936-17.935 9.889 0 17.935 8.046 17.935 17.935s-8.046 17.936-17.935 17.936c-9.89 0-17.936-8.046-17.936-17.936z"/></svg><svg viewBox="0 0 150 132.422" id="like" xmlns="http://www.w3.org/2000/svg"><path d="M110.156 0a35.514 35.514 0 00-22.18 7.666A50.524 50.524 0 0075 23.272 50.52 50.52 0 0062.024 7.666 35.514 35.514 0 0039.844 0C17.129 0 0 18.58 0 43.217c0 26.617 21.37 44.829 53.721 72.398 5.494 4.682 11.721 9.989 18.193 15.648a4.689 4.689 0 006.172 0c6.472-5.66 12.7-10.967 18.196-15.651C128.63 88.046 150 69.834 150 43.217 150 18.579 132.87 0 110.156 0z"/></svg><svg viewBox="0 0 512 360" id="menu" xmlns="http://www.w3.org/2000/svg"><path d="M492 236H20c-11.046 0-20 8.954-20 20s8.954 20 20 20h472c11.046 0 20-8.954 20-20s-8.954-20-20-20zM492 76H20C8.954 76 0 84.954 0 96s8.954 20 20 20h472c11.046 0 20-8.954 20-20s-8.954-20-20-20zM492 396H20c-11.046 0-20 8.954-20 20s8.954 20 20 20h472c11.046 0 20-8.954 20-20s-8.954-20-20-20z"/></svg><svg viewBox="0 0 490.2 490.2" id="my-marks" xmlns="http://www.w3.org/2000/svg"><path d="M108.9.3H32.2C14.5.3.1 14.7.1 32.4v76.7c0 17.7 14.4 32.1 32.1 32.1h76.7c17.7 0 32.1-14.4 32.1-32.1V32.4C141 14.7 126.6.3 108.9.3zm7.6 108.8c0 4.2-3.4 7.6-7.6 7.6H32.2c-4.2 0-7.6-3.4-7.6-7.6V32.4c0-4.2 3.4-7.6 7.6-7.6h76.7c4.2 0 7.6 3.4 7.6 7.6v76.7zM0 283.5c0 17.7 14.4 32.1 32.1 32.1h76.7c17.7 0 32.1-14.4 32.1-32.1v-76.7c0-17.7-14.4-32.1-32.1-32.1H32.2C14.5 174.7.1 189.1.1 206.8v76.7H0zm24.5-76.8c0-4.2 3.4-7.6 7.6-7.6h76.7c4.2 0 7.6 3.4 7.6 7.6v76.7c0 4.2-3.4 7.6-7.6 7.6H32.2c-4.2 0-7.6-3.4-7.6-7.6v-76.7h-.1zM0 457.8c0 17.7 14.4 32.1 32.1 32.1h76.7c17.7 0 32.1-14.4 32.1-32.1v-76.7c0-17.7-14.4-32.1-32.1-32.1H32.2C14.5 349 .1 363.4.1 381.1v76.7H0zm24.5-76.7c0-4.2 3.4-7.6 7.6-7.6h76.7c4.2 0 7.6 3.4 7.6 7.6v76.7c0 4.2-3.4 7.6-7.6 7.6H32.2c-4.2 0-7.6-3.4-7.6-7.6v-76.7h-.1zM202.4 83h275.5c6.8 0 12.3-5.5 12.3-12.3s-5.5-12.3-12.3-12.3H202.4c-6.8 0-12.3 5.5-12.3 12.3S195.6 83 202.4 83zM202.4 257.4h275.5c6.8 0 12.3-5.5 12.3-12.3s-5.5-12.3-12.3-12.3H202.4c-6.8 0-12.3 5.5-12.3 12.3s5.5 12.3 12.3 12.3zM202.4 431.7h275.5c6.8 0 12.3-5.5 12.3-12.3s-5.5-12.3-12.3-12.3H202.4c-6.8 0-12.3 5.5-12.3 12.3s5.5 12.3 12.3 12.3z"/></svg><svg viewBox="0 0 24 24" id="notify" xmlns="http://www.w3.org/2000/svg"><path d="M13.5 4.18a.5.5 0 01-.5-.5V2c0-.551-.449-1-1-1s-1 .449-1 1v1.68a.5.5 0 01-1 0V2c0-1.103.897-2 2-2s2 .897 2 2v1.68a.5.5 0 01-.5.5zM12 24c-1.93 0-3.5-1.57-3.5-3.5a.5.5 0 011 0c0 1.378 1.122 2.5 2.5 2.5s2.5-1.122 2.5-2.5a.5.5 0 011 0c0 1.93-1.57 3.5-3.5 3.5z"/><path d="M20.5 21h-17a1.502 1.502 0 01-.975-2.64A6.952 6.952 0 005 13.038V10c0-3.86 3.14-7 7-7s7 3.14 7 7v3.038c0 2.053.899 3.99 2.467 5.315A1.501 1.501 0 0120.5 21zM12 4c-3.309 0-6 2.691-6 6v3.038a7.944 7.944 0 01-2.821 6.079A.5.5 0 003.5 20h17a.5.5 0 00.325-.88A7.95 7.95 0 0118 13.038V10c0-3.309-2.691-6-6-6z"/></svg><svg viewBox="0 0 512 512" id="pay-story" xmlns="http://www.w3.org/2000/svg"><path d="M382.56 233.376A15.96 15.96 0 00368 224h-64V16c0-8.832-7.168-16-16-16h-64c-8.832 0-16 7.168-16 16v208h-64a16.013 16.013 0 00-14.56 9.376c-2.624 5.728-1.6 12.416 2.528 17.152l112 128A15.946 15.946 0 00256 384c4.608 0 8.992-2.016 12.032-5.472l112-128c4.16-4.704 5.12-11.424 2.528-17.152z"/><path d="M432 352v96H80v-96H16v128c0 17.696 14.336 32 32 32h416c17.696 0 32-14.304 32-32V352h-64z"/></svg><svg viewBox="0 0 512 512" id="place" xmlns="http://www.w3.org/2000/svg"><path d="M256 0C153.755 0 70.573 83.182 70.573 185.426c0 126.888 165.939 313.167 173.004 321.035 6.636 7.391 18.222 7.378 24.846 0 7.065-7.868 173.004-194.147 173.004-321.035C441.425 83.182 358.244 0 256 0zm0 278.719c-51.442 0-93.292-41.851-93.292-93.293S204.559 92.134 256 92.134s93.291 41.851 93.291 93.293-41.85 93.292-93.291 93.292z"/></svg><svg viewBox="0 0 111 150" id="play" xmlns="http://www.w3.org/2000/svg"><path d="M14.453 150A14.342 14.342 0 01.13 135.678V14.32A14.309 14.309 0 0122.901 2.782l82.121 60.222a14.31 14.31 0 01.084 23.016l-82.123 61.136a14.255 14.255 0 01-8.53 2.844zm.027-139.38a3.848 3.848 0 00-1.706.415 3.593 3.593 0 00-2.018 3.285v121.358a3.683 3.683 0 005.882 2.955l82.123-61.135a3.684 3.684 0 00-.022-5.925L16.617 11.35a3.553 3.553 0 00-2.137-.73z"/></svg><svg viewBox="0 0 150 150" id="search" xmlns="http://www.w3.org/2000/svg"><path d="M148.2 139.4l-42.6-42.6c20.6-25.5 16.7-62.9-8.8-83.5s-63-16.7-83.6 8.8S-3.5 85 22 105.6c21.8 17.6 52.9 17.6 74.7 0l42.6 42.6c2.4 2.4 6.4 2.4 8.8 0 2.5-2.4 2.5-6.3.1-8.8zm-88.7-33c-25.8 0-46.8-21-46.8-46.8s21-46.8 46.8-46.8 46.8 21 46.8 46.8c0 25.8-21 46.8-46.8 46.8z"/></svg><svg viewBox="0 0 485.725 485.725" id="send" xmlns="http://www.w3.org/2000/svg"><path d="M459.835 196.758L73.531 9.826C48.085-2.507 17.46 8.123 5.126 33.569a51.198 51.198 0 00-1.449 41.384l60.348 150.818h421.7a50.787 50.787 0 00-25.89-29.013zM64.025 259.904L3.677 410.756c-10.472 26.337 2.389 56.177 28.726 66.65a51.318 51.318 0 0018.736 3.631c7.754 0 15.408-1.75 22.391-5.12l386.304-187a50.79 50.79 0 0025.89-29.013H64.025z"/></svg><svg viewBox="0 0 24 24" id="settings" xmlns="http://www.w3.org/2000/svg"><path d="M13.12 24h-2.24a1.498 1.498 0 01-1.486-1.32l-.239-1.876a9.45 9.45 0 01-1.374-.569l-1.494 1.161a1.492 1.492 0 01-1.985-.126l-1.575-1.575a1.488 1.488 0 01-.122-1.979l1.161-1.495a9.232 9.232 0 01-.569-1.374l-1.88-.239A1.501 1.501 0 010 13.12v-2.24c0-.757.567-1.396 1.32-1.486l1.876-.239a9.45 9.45 0 01.569-1.374l-1.16-1.494a1.49 1.49 0 01.127-1.986l1.575-1.575a1.489 1.489 0 011.979-.122L7.78 3.766a9.416 9.416 0 011.375-.569l.239-1.88C9.484.567 10.123 0 10.88 0h2.24c.757 0 1.396.567 1.486 1.32l.239 1.876c.478.155.938.346 1.375.569l1.494-1.161a1.49 1.49 0 011.985.127l1.575 1.575c.537.521.591 1.374.122 1.979L20.235 7.78c.224.437.415.897.569 1.374l1.88.239A1.5 1.5 0 0124 10.88v2.24c0 .757-.567 1.396-1.32 1.486l-1.876.239a9.45 9.45 0 01-.569 1.374l1.161 1.494a1.49 1.49 0 01-.127 1.985l-1.575 1.575a1.487 1.487 0 01-1.979.122l-1.495-1.161a9.232 9.232 0 01-1.374.569l-.239 1.88A1.5 1.5 0 0113.12 24zm-5.39-4.86c.083 0 .168.021.244.063a8.393 8.393 0 001.774.736.5.5 0 01.358.417l.28 2.2c.03.251.247.444.494.444h2.24a.504.504 0 00.493-.439l.281-2.204a.5.5 0 01.358-.417 8.393 8.393 0 001.774-.736.499.499 0 01.55.042l1.75 1.36a.492.492 0 00.655-.034l1.585-1.585a.495.495 0 00.039-.66l-1.36-1.75a.5.5 0 01-.042-.55 8.393 8.393 0 00.736-1.774.5.5 0 01.417-.358l2.2-.28A.507.507 0 0023 13.12v-2.24a.504.504 0 00-.439-.493l-2.204-.281a.5.5 0 01-.417-.358 8.393 8.393 0 00-.736-1.774.497.497 0 01.042-.55l1.36-1.75a.49.49 0 00-.033-.654l-1.585-1.585a.492.492 0 00-.66-.039l-1.75 1.36a.5.5 0 01-.551.042 8.359 8.359 0 00-1.774-.736.5.5 0 01-.358-.417l-.28-2.2A.507.507 0 0013.12 1h-2.24a.504.504 0 00-.493.439l-.281 2.204a.502.502 0 01-.358.418 8.356 8.356 0 00-1.774.735.5.5 0 01-.551-.041l-1.75-1.36a.49.49 0 00-.654.033L3.434 5.014a.495.495 0 00-.039.66l1.36 1.75a.5.5 0 01.042.55 8.341 8.341 0 00-.736 1.774.5.5 0 01-.417.358l-2.2.28A.505.505 0 001 10.88v2.24c0 .247.193.464.439.493l2.204.281a.5.5 0 01.417.358c.18.626.428 1.223.736 1.774a.497.497 0 01-.042.55l-1.36 1.75a.49.49 0 00.033.654l1.585 1.585a.494.494 0 00.66.039l1.75-1.36a.515.515 0 01.308-.104z"/><path d="M12 17c-2.757 0-5-2.243-5-5s2.243-5 5-5 5 2.243 5 5-2.243 5-5 5zm0-9c-2.206 0-4 1.794-4 4s1.794 4 4 4 4-1.794 4-4-1.794-4-4-4z"/></svg><svg viewBox="0 0 512 512.006" id="share" xmlns="http://www.w3.org/2000/svg"><path d="M507.523 148.89l-138.668-144a16.014 16.014 0 00-17.492-3.734 16.024 16.024 0 00-10.027 14.848V85.34h-5.332c-114.688 0-208 93.312-208 208v32c0 7.422 5.226 13.61 12.457 15.297 1.176.297 2.348.425 3.52.425 6.039 0 11.82-3.542 14.613-9.109 29.996-60.012 90.304-97.281 157.398-97.281h25.344v69.332a15.97 15.97 0 0010.027 14.828c5.996 2.453 12.969.961 17.492-3.734l138.668-144c5.973-6.207 5.973-15.977 0-22.207zm0 0"/><path d="M448.004 512.004h-384c-35.285 0-64-28.711-64-64V149.34c0-35.285 28.715-64 64-64h64c11.797 0 21.332 9.535 21.332 21.332s-9.535 21.332-21.332 21.332h-64c-11.777 0-21.336 9.559-21.336 21.336v298.664c0 11.777 9.559 21.336 21.336 21.336h384c11.773 0 21.332-9.559 21.332-21.336V277.34c0-11.797 9.535-21.336 21.332-21.336 11.8 0 21.336 9.539 21.336 21.336v170.664c0 35.289-28.715 64-64 64zm0 0"/></svg><svg viewBox="0 0 512 512" id="star" xmlns="http://www.w3.org/2000/svg"><path d="M497.697 242.93c12.975-12.641 17.554-31.194 11.954-48.41-5.59-17.223-20.199-29.54-38.126-32.145l-110.687-16.083a17.259 17.259 0 01-12.986-9.435L298.351 36.549c-8.016-16.235-24.244-26.32-42.352-26.32s-34.336 10.085-42.352 26.32l-49.501 100.307a17.25 17.25 0 01-12.977 9.435L40.475 162.374c-17.928 2.606-32.537 14.923-38.124 32.137-5.603 17.225-1.024 35.779 11.947 48.416l80.098 78.084a17.23 17.23 0 014.96 15.249L80.444 446.514c-3.056 17.85 4.143 35.548 18.788 46.186 14.648 10.643 33.708 12.022 49.744 3.599l99.002-52.052a17.242 17.242 0 0116.036-.003l99.01 52.055c16.036 8.424 35.096 7.044 49.744-3.599 14.644-10.639 21.844-28.336 18.788-46.186l-18.913-110.249a17.237 17.237 0 014.962-15.257zm-114.624 98.398l18.915 110.258c1.131 6.604-1.43 12.904-6.852 16.843-3.01 2.187-6.497 3.342-10.086 3.342-1.573 0-4.587-.199-8.074-2.031l-99.001-52.05a47.435 47.435 0 00-21.974-5.422 47.428 47.428 0 00-21.975 5.422l-99.011 52.056c-6.801 3.573-13.607 1.985-18.148-1.315-5.424-3.94-7.985-10.24-6.853-16.854l18.911-110.244a47.233 47.233 0 00-13.591-41.807l-80.094-78.08c-4.806-4.683-6.434-11.28-4.36-17.654 2.073-6.386 7.271-10.764 13.911-11.729l110.69-16.083a47.251 47.251 0 0035.567-25.845l49.5-100.304c2.968-6.012 8.745-9.601 15.452-9.601s12.484 3.589 15.452 9.601l49.499 100.303a47.254 47.254 0 0035.557 25.845c24.539 3.563 71.538 10.387 110.699 16.084 6.643.965 11.841 5.346 13.91 11.719 2.078 6.387.448 12.982-4.354 17.661l-80.099 78.084a47.23 47.23 0 00-13.591 41.801z"/></svg></svg>