<?xml version="1.0" encoding="utf-8"?>
<!-- Generator: Adobe Illustrator 24.0.2, SVG Export Plug-In . SVG Version: 6.00 Build 0)  -->
<svg version="1.1" id="Слой_1" xmlns="http://www.w3.org/2000/svg" xmlns:xlink="http://www.w3.org/1999/xlink" x="0px" y="0px"
	 viewBox="0 0 79 50" style="enable-background:new 0 0 79 50;" xml:space="preserve">
<style type="text/css">
	.st0{fill:#FD9733;}
	.st1{fill:#131E34;}
	.st2{fill:#FFFFFF;}
</style>
<path class="st0" d="M69,0H10C4.5,0,0,4.5,0,10c0,0,0,0,0,0v30c0,5.5,4.5,10,10,10c0,0,0,0,0,0h59c5.5,0,10-4.5,10-10c0,0,0,0,0,0
	V10C79,4.5,74.5,0,69,0C69,0,69,0,69,0z"/>
<path class="st1" d="M14.5,0h50c5.5,0,10,4.5,10,10c0,0,0,0,0,0v30c0,5.5-4.5,10-10,10c0,0,0,0,0,0h-50c-5.5,0-10-4.5-10-10
	c0,0,0,0,0,0V10C4.5,4.5,9,0,14.5,0C14.5,0,14.5,0,14.5,0z"/>
<path class="st2" d="M37.7,38.9V26.6H25.6v-3.3h12.1V11.1h3.7v12.3h12.1v3.3H41.3v12.3H37.7z"/>
</svg>
