<svg xmlns="http://www.w3.org/2000/svg" viewBox="0 0 150 143">
	<path d="M75.0001,3.7501C33.64516,3.7501.0002,34.03006.0002,71.25a62.3989,62.3989,0,0,0,11.92,36.51c-1.4775,16.34247-5.4375,28.475-11.18749,34.22245a2.49974,2.49974,0,0,0,1.7675,4.26749,2.34513,2.34513,0,0,0,.3475-.025c1.0125-.1425,24.53246-3.52749,41.54494-13.34749a81.377,81.377,0,0,0,30.60746,5.87249C116.355,138.74991,150,108.47,150,71.25S116.355,3.7501,75.0001,3.7501Zm-35,77.49989a10,10,0,1,1,10-10A10.01,10.01,0,0,1,40.00015,81.25Zm35,0a10,10,0,1,1,10-10A10.01005,10.01005,0,0,1,75.0001,81.25Zm35,0a10,10,0,1,1,10-10A10.01,10.01,0,0,1,110.00005,81.25Z" transform="translate(0 -3.7501)" />
</svg>
