<svg viewBox="0 0 31 40" xmlns="http://www.w3.org/2000/svg">
    <path
        d="M29.6307 8.98796L20.883 0.362841C20.3967 -0.11845 19.5829 -0.123438 19.0968 0.362841L10.3479 8.98796C9.85412 9.47673 9.85537 10.268 10.3479 10.7555C10.8404 11.2443 11.6404 11.2443 12.1329 10.7555L18.7267 4.25536V23.7469C18.7267 24.437 19.2918 24.9969 19.9893 24.9969C20.6868 24.9969 21.2519 24.4369 21.2519 23.7469V4.25536L27.8457 10.7555C28.3395 11.2443 29.1382 11.2443 29.6307 10.7555C30.1244 10.2667 30.1244 9.47548 29.6307 8.98796Z"
         />
    <path
        d="M17.8682 29.2453L11.2743 35.7455V16.2539C11.2743 15.5639 10.7093 15.0039 10.0117 15.0039C9.31422 15.0039 8.74918 15.564 8.74918 16.2539V35.7455L2.15532 29.2453C1.66156 28.7566 0.862834 28.7566 0.37032 29.2453C-0.12344 29.7341 -0.12344 30.5253 0.37032 31.0129L9.11919 39.6367C9.60547 40.118 10.4193 40.123 10.9054 39.6367L19.6543 31.0116C20.1481 30.5229 20.1468 29.7316 19.6543 29.2441C19.1608 28.7578 18.3607 28.7566 17.8682 29.2453Z"
         />
</svg>