<svg xmlns="http://www.w3.org/2000/svg" viewBox="0 0 150 150">
	<path d="M145.96453,65.24277l-.01144-.01145L84.765,4.04549a13.80732,13.80732,0,0,0-19.52934,0L4.07954,65.20042c-.0206.0206-.04235.04235-.0618.063A13.803,13.803,0,0,0,13.2062,88.79013c.14191.01373.28381.0206.42687.0206h2.43759v45.02792A16.18047,16.18047,0,0,0,32.23315,150H56.1719a4.39493,4.39493,0,0,0,4.39453-4.39453V110.30273a7.38229,7.38229,0,0,1,7.37457-7.37342H82.06072a7.38131,7.38131,0,0,1,7.37343,7.37342v35.30274A4.39493,4.39493,0,0,0,93.82868,150h23.93875a16.17975,16.17975,0,0,0,16.1625-16.16135V88.81073h2.26135a13.8113,13.8113,0,0,0,9.77325-23.568ZM139.74124,78.55a4.98914,4.98914,0,0,1-3.55,1.47171h-6.65589a4.3942,4.3942,0,0,0-4.39453,4.39453v49.42245a7.38107,7.38107,0,0,1-7.37343,7.37229H98.22321V110.30273A16.18072,16.18072,0,0,0,82.06072,94.14024H67.941a16.1817,16.1817,0,0,0-16.16363,16.16249v30.90821H32.23315a7.38181,7.38181,0,0,1-7.37343-7.37229V84.4162a4.3942,4.3942,0,0,0-4.39453-4.39453H13.92375c-.06867-.00458-.13619-.008-.206-.00916a5.01436,5.01436,0,0,1-3.45726-8.56361l.00229-.00229.00343-.00343L71.45205,10.25963a5.01733,5.01733,0,0,1,7.09763,0l61.1721,61.171.02861.02746A5.0309,5.0309,0,0,1,139.74124,78.55Z" transform="translate(-0.00758)" />
</svg>
