<svg xmlns="http://www.w3.org/2000/svg" viewBox="0 0 150 132.42188">
	<path d="M110.15625.28906A35.51366,35.51366,0,0,0,87.97646,7.95547,50.524,50.524,0,0,0,75,23.56133,50.52059,50.52059,0,0,0,62.02354,7.95547,35.51366,35.51366,0,0,0,39.84375.28906C17.1293.28906,0,18.86826,0,43.50606c0,26.61738,21.37,44.82861,53.72139,72.39785,5.49375,4.68193,11.7208,9.98877,18.19306,15.64864a4.689,4.689,0,0,0,6.1711.00028c6.47285-5.66074,12.69961-10.96728,18.19658-15.65185C128.63,88.33467,150,70.12344,150,43.50606,150,18.86826,132.87071.28906,110.15625.28906Z" transform="translate(0 -0.28906)" />
</svg>
