<svg xmlns="http://www.w3.org/2000/svg" viewBox="0 0 111 150">
	<path d="M14.4528,150A14.3421,14.3421,0,0,1,.13024,135.678V14.32048A14.30877,14.30877,0,0,1,22.90107,2.78172l82.12139,60.2222a14.30931,14.30931,0,0,1,.08359,23.01641L22.9835,147.15566A14.2547,14.2547,0,0,1,14.4528,150Zm.0271-139.37993a3.84819,3.84819,0,0,0-1.7058.41507,3.59291,3.59291,0,0,0-2.01824,3.28534V135.678a3.68338,3.68338,0,0,0,5.88236,2.955L98.76077,77.4977a3.68394,3.68394,0,0,0-.02191-5.925L16.61747,11.35047A3.553,3.553,0,0,0,14.4799,10.62007Z" />
</svg>
