<?xml version="1.0" encoding="utf-8"?>
<!-- Generator: Adobe Illustrator 24.0.2, SVG Export Plug-In . SVG Version: 6.00 Build 0)  -->
<svg version="1.1" id="Слой_1" xmlns="http://www.w3.org/2000/svg" xmlns:xlink="http://www.w3.org/1999/xlink" x="0px" y="0px"
	 viewBox="0 0 150 150" style="enable-background:new 0 0 150 150;" xml:space="preserve">
<title>search</title>
<path d="M148.2,139.4l-42.6-42.6c20.6-25.5,16.7-62.9-8.8-83.5s-63-16.7-83.6,8.8S-3.5,85,22,105.6c21.8,17.6,52.9,17.6,74.7,0
	l42.6,42.6c2.4,2.4,6.4,2.4,8.8,0C150.6,145.8,150.6,141.9,148.2,139.4z M59.5,106.4c-25.8,0-46.8-21-46.8-46.8s21-46.8,46.8-46.8
	s46.8,21,46.8,46.8l0,0C106.3,85.4,85.3,106.4,59.5,106.4z"/>
</svg>
